<svg width="256" height="256" viewBox="0 0 256 256" fill="none" xmlns="http://www.w3.org/2000/svg">
  <path d="M128 32L64 64V128C64 166.667 90.6667 204.267 128 217.6C165.333 204.267 192 166.667 192 128V64L128 32Z" fill="#2563EB"/>
  <path d="M128 70.4L93.8667 88.5333V128C93.8667 149.333 107.733 169.6 128 176.533C148.267 169.6 162.133 149.333 162.133 128V88.5333L128 70.4Z" fill="white"/>
  <path d="M128 96L108.8 105.6V128C108.8 139.733 116.267 150.933 128 154.933C139.733 150.933 147.2 139.733 147.2 128V105.6L128 96Z" fill="#2563EB"/>
</svg>